<svg id="visual" viewBox="0 0 960 25" width="960" height="25" xmlns="http://www.w3.org/2000/svg" xmlns:xlink="http://www.w3.org/1999/xlink" version="1.1"><path d="M0 16L6.2 16.8C12.3 17.7 24.7 19.3 37 20.5C49.3 21.7 61.7 22.3 74 22.7C86.3 23 98.7 23 111 22.7C123.3 22.3 135.7 21.7 148 21C160.3 20.3 172.7 19.7 185 20C197.3 20.3 209.7 21.7 221.8 21.7C234 21.7 246 20.3 258.2 18C270.3 15.7 282.7 12.3 295 13C307.3 13.7 319.7 18.3 332 18.8C344.3 19.3 356.7 15.7 369 15.2C381.3 14.7 393.7 17.3 406 17.2C418.3 17 430.7 14 443 13.2C455.3 12.3 467.7 13.7 480 15.7C492.3 17.7 504.7 20.3 517 21.5C529.3 22.7 541.7 22.3 554 21.7C566.3 21 578.7 20 591 19.2C603.3 18.3 615.7 17.7 628 17.2C640.3 16.7 652.7 16.3 665 17.2C677.3 18 689.7 20 701.8 19.7C714 19.3 726 16.7 738.2 14.7C750.3 12.7 762.7 11.3 775 12C787.3 12.7 799.7 15.3 812 15.2C824.3 15 836.7 12 849 12.5C861.3 13 873.7 17 886 18.8C898.3 20.7 910.7 20.3 923 20C935.3 19.7 947.7 19.3 953.8 19.2L960 19L960 26L953.8 26C947.7 26 935.3 26 923 26C910.7 26 898.3 26 886 26C873.7 26 861.3 26 849 26C836.7 26 824.3 26 812 26C799.7 26 787.3 26 775 26C762.7 26 750.3 26 738.2 26C726 26 714 26 701.8 26C689.7 26 677.3 26 665 26C652.7 26 640.3 26 628 26C615.7 26 603.3 26 591 26C578.7 26 566.3 26 554 26C541.7 26 529.3 26 517 26C504.7 26 492.3 26 480 26C467.7 26 455.3 26 443 26C430.7 26 418.3 26 406 26C393.7 26 381.3 26 369 26C356.7 26 344.3 26 332 26C319.7 26 307.3 26 295 26C282.7 26 270.3 26 258.2 26C246 26 234 26 221.8 26C209.7 26 197.3 26 185 26C172.7 26 160.3 26 148 26C135.7 26 123.3 26 111 26C98.7 26 86.3 26 74 26C61.7 26 49.3 26 37 26C24.7 26 12.3 26 6.2 26L0 26Z" fill="#AFAC99" stroke-linecap="round" stroke-linejoin="miter"></path></svg>
